<?xml version="1.0" standalone="no"?>
<!DOCTYPE svg PUBLIC "-//W3C//DTD SVG 20010904//EN"
 "http://www.w3.org/TR/2001/REC-SVG-20010904/DTD/svg10.dtd">
<svg version="1.0" xmlns="http://www.w3.org/2000/svg"
 width="826.000000pt" height="826.000000pt" viewBox="0 0 826.000000 826.000000"
 preserveAspectRatio="xMidYMid meet">
<metadata>
Created by potrace 1.11, written by Peter Selinger 2001-2013
</metadata>
<g transform="translate(0.000000,826.000000) scale(0.100000,-0.100000)"
fill="#000000" stroke="none">
<path d="M3938 8255 c-2 -1 -50 -5 -108 -9 -58 -3 -116 -8 -130 -10 -14 -3
-47 -7 -75 -10 -94 -11 -130 -16 -155 -21 -14 -3 -41 -7 -60 -10 -202 -32
-521 -120 -745 -205 -1072 -409 -1930 -1246 -2359 -2302 -88 -216 -190 -549
-220 -718 -2 -14 -11 -63 -20 -110 -17 -90 -22 -124 -31 -205 -3 -27 -8 -59
-10 -70 -31 -158 -26 -737 10 -990 2 -16 7 -52 10 -80 27 -209 142 -657 210
-820 7 -16 34 -84 61 -150 56 -140 186 -399 269 -535 59 -98 160 -253 182
-280 7 -8 35 -46 64 -85 127 -172 373 -441 540 -590 142 -127 344 -282 504
-387 101 -66 295 -180 337 -198 13 -6 30 -14 38 -20 74 -48 407 -186 600 -248
210 -68 501 -137 655 -156 66 -8 128 -16 162 -22 77 -12 235 -18 463 -19 266
0 430 10 580 35 30 5 75 12 100 15 130 18 351 71 535 128 55 17 105 32 110 33
6 1 48 16 95 34 307 113 607 267 883 452 94 63 272 194 317 234 14 12 68 59
120 105 275 242 550 563 744 870 229 361 406 768 511 1174 19 72 36 141 38
155 3 14 8 36 11 50 10 44 49 288 60 385 26 210 27 755 2 930 -3 17 -10 71
-16 120 -14 109 -17 129 -41 255 -17 91 -19 102 -41 190 -56 233 -140 464
-253 690 -317 639 -870 1116 -1610 1392 -81 30 -343 113 -387 122 -12 3 -63
15 -113 27 -49 11 -99 22 -110 25 -139 28 -157 31 -310 54 -71 10 -161 22
-200 25 -38 4 -81 8 -94 10 -111 18 -691 26 -911 12 -177 -10 -271 -19 -320
-27 -25 -5 -46 -7 -48 -5 -1 1 41 21 95 44 54 24 107 46 118 51 171 75 592
188 800 214 11 2 44 6 73 11 128 18 322 29 492 28 236 0 430 -20 635 -62 50
-11 91 -18 93 -17 6 6 -328 161 -453 209 -209 82 -510 172 -641 193 -22 3 -42
8 -45 9 -7 5 -232 42 -294 49 -27 3 -68 8 -90 10 -122 14 -211 19 -407 21
-120 1 -219 1 -220 0z m672 -2649 c52 -3 131 -9 175 -11 87 -6 180 -14 235
-20 19 -2 64 -7 100 -10 36 -3 76 -8 90 -10 14 -2 50 -7 80 -10 47 -5 146 -20
275 -41 17 -2 46 -7 65 -10 82 -13 344 -67 460 -95 117 -28 148 -37 275 -74
886 -261 1440 -662 1515 -1098 56 -321 -155 -637 -615 -920 -216 -134 -588
-286 -940 -387 -142 -41 -424 -109 -525 -126 -14 -3 -63 -12 -110 -21 -47 -8
-94 -16 -105 -18 -11 -1 -33 -5 -50 -8 -16 -3 -52 -9 -80 -12 -27 -3 -61 -7
-75 -10 -31 -5 -71 -11 -175 -24 -77 -9 -127 -14 -265 -26 -36 -3 -85 -8 -110
-10 -289 -27 -1133 -27 -1390 -1 -19 2 -77 7 -128 10 -51 4 -98 8 -105 11 -6
2 -44 6 -82 10 -39 3 -81 7 -95 10 -14 2 -52 6 -85 10 -33 3 -69 8 -80 10 -20
4 -69 12 -132 20 -18 3 -70 12 -115 20 -46 8 -96 17 -113 20 -16 3 -41 8 -55
11 -14 3 -38 8 -55 11 -16 2 -103 22 -193 44 -1033 247 -1692 659 -1816 1134
-15 58 -17 229 -3 280 62 229 224 427 505 617 248 169 671 353 1042 453 8 3
47 14 85 25 39 11 79 22 90 25 11 2 90 19 175 39 85 19 166 37 180 39 130 24
262 47 295 52 22 3 51 7 65 10 14 2 48 7 75 10 28 3 65 8 83 11 78 10 101 13
167 20 39 3 81 8 95 10 14 1 68 6 120 9 52 4 105 8 118 10 13 2 105 7 205 11
100 3 183 8 185 9 5 5 653 -3 742 -9z"/>
<path d="M1735 4633 c19 -388 192 -742 460 -941 96 -71 220 -126 335 -148 53
-11 220 -11 265 -1 22 5 45 10 50 11 59 12 225 85 225 98 0 4 5 8 11 8 18 0
133 95 189 156 56 62 140 176 140 191 0 6 -145 71 -322 146 -178 75 -474 200
-658 278 -541 228 -654 276 -677 283 -23 7 -23 7 -18 -81z"/>
<path d="M6435 4688 c-108 -47 -121 -53 -265 -113 -74 -31 -148 -63 -165 -70
-16 -8 -91 -39 -165 -70 -74 -31 -148 -62 -165 -70 -16 -7 -55 -23 -85 -35
-30 -12 -78 -32 -108 -46 -29 -13 -55 -24 -57 -24 -3 0 -24 -9 -48 -19 -23
-11 -103 -45 -177 -76 -74 -32 -148 -63 -165 -70 -16 -7 -65 -28 -107 -46 -43
-18 -78 -37 -78 -41 0 -23 92 -141 169 -219 177 -177 368 -259 592 -254 205 5
378 80 542 234 223 210 351 512 372 875 3 56 1 76 -8 75 -6 0 -43 -14 -82 -31z"/>
</g>
</svg>
